PathFileType	4	(X/Y/Z)	C:/Users/beibeiliu/ov580/test_trc\sequence.29_training_dense_left.trc
DataRate	CameraRate	NumFrames	NumMarkers	Units	OrigDataRate	OrigDataStartFrame	OrigNumFrames
120	120	7	19	mm	120	50	396
Frame#	Time	ThumbCMC			ThumbMCP			ThumbIP			ThumbTip			IndexMCP			IndexPIP			IndexTip			MiddleMCP			MiddlePIP			MiddleTip			RingMCP			RingPIP			RingTip			PinkyMCP			PinkyPIP			PinkyTip			BackHand1			BackHand2			BackHand3	
		X0	Y0	Z0	X1	Y1	Z1	X2	Y2	Z2	X3	Y3	Z3	X4	Y4	Z4	X5	Y5	Z5	X6	Y6	Z6	X7	Y7	Z7	X8	Y8	Z8	X9	Y9	Z9	X10	Y10	Z10	X11	Y11	Z11	X12	Y12	Z12	X13	Y13	Z13	X14	Y14	Z14	X15	Y15	Z15	X16	Y16	Z16	X17	Y17	Z17	X18	Y18	Z18	
49	0.408333	-232.05	-14.1009	14.2882	-232.922	-10.4587	-6.56172	-239.669	-14.5348	-28.6066	-246.956	-17.0463	-46.4653	-203.745	-22.8009	-49.5504	-198.643	-18.1635	-70.1663	-192.752	-14.6605	-89.5074	-187.052	1.29142	-40.622	-190.861	28.5471	-29.9282	-200.648	13.8816	-0.317205	-173.119	7.56923	-27.2634	-186.682	26.5518	-10.9815	-193.996	9.50541	9.80643	-163.218	2.22137	-15.8277	-176.336	23.0277	-7.52122	-188.389	11.5963	15.0983	-178.742	-33.121	4.43038	-190.028	-34.005	30.447	-208.036	-35.4581	11.8189	
50	0.416667	-231.651	-12.7526	19.2737	-234.901	-11.6008	-7.39256	-239.363	-14.6488	-27.6546	-249.455	-16.6533	-44.3805	-207.723	-22.8247	-45.4454	-195.987	-19.6798	-68.3316	-193.73	-15.9692	-88.3228	-186.854	0.235755	-39.3216	-190.209	28.438	-29.8017	-199.146	17.3481	-1.68609	-174.218	4.42891	-27.2024	-184.371	26.4814	-9.35399	-194.025	6.44295	9.7745	-162.437	6.65048	-15.788	-172.51	24.5183	-5.08898	-189.159	12.9053	11.6808	-179.613	-33.38	6.85753	-186.698	-36.6919	30.7226	-207.629	-36.5486	11.892	
51	0.425	-231.588	-12.5469	19.1568	-237.94	-9.90177	-6.34112	-238.463	-14.5513	-27.8536	-248.565	-18.5756	-47.2456	-204.58	-23.7851	-46.8953	-197.955	-19.6218	-68.1672	-190.08	-15.5646	-90.7989	-187.306	-0.688549	-39.4155	-191.891	27.3357	-34.0827	-200.558	13.2379	-0.281694	-176.197	5.04434	-27.9445	-187.327	25.3004	-12.0628	-192.473	9.88396	9.24476	-159.142	4.48494	-14.5901	-176.039	23.2285	-3.82396	-188.921	8.23114	9.9102	-180.386	-32.7213	5.05159	-185.109	-35.159	32.3402	-209.497	-37.206	10.8976	
52	0.433333	-227.239	-15.6515	17.4813	-234.112	-11.4456	-4.42034	-241.131	-19.0168	-32.4429	-247.011	-19.4806	-47.1932	-202.211	-24.3483	-45.1302	-196.184	-20.2227	-66.4226	-188.682	-15.0855	-89.597	-184.621	2.45679	-41.0865	-191.95	27.6366	-33.0002	-204.426	15.0393	-4.04319	-171.465	4.40096	-24.9164	-186.657	24.8473	-12.5205	-193.611	7.5015	9.37293	-160.219	5.90721	-14.156	-176.899	22.3877	-3.08617	-188.882	6.31972	15.6251	-179.587	-31.6413	4.06554	-184.611	-37.0291	34.6758	-208.342	-37.5647	8.91316	
53	0.441667	-230.486	-14.624	18.4279	-235.736	-14.3522	-9.52665	-241.595	-18.1934	-32.0867	-245.627	-18.7682	-46.1265	-203.286	-24.4487	-45.2056	-197.415	-19.6554	-68.0613	-192.784	-16.0546	-87.5371	-189.355	2.10139	-41.8574	-193.207	28.5832	-29.0478	-202.66	13.8452	-2.45374	-176.961	5.69502	-28.0492	-185.184	24.7293	-12.8469	-196.622	9.8816	6.90925	-163.137	4.27886	-16.3532	-178.481	21.89	-5.84346	-190.408	7.98241	11.8239	-177.454	-34.2824	8.17553	-186.399	-37.112	31.8798	-209.687	-37.7259	8.23201	
54	0.45	-229.915	-16.4522	14.347	-234.396	-13.0552	-7.24983	-240.951	-17.8102	-30.8734	-245.42	-18.8259	-46.0589	-203.011	-24.3896	-46.2593	-196.461	-20.2223	-70.8547	-191.94	-16.3788	-87.964	-184.959	0.512023	-39.776	-193.953	27.5581	-28.2666	-204.597	12.8074	-2.45203	-172.762	5.13405	-25.6824	-184.829	25.33	-9.34204	-195.744	7.99529	6.64507	-163.338	7.0533	-16.4415	-177.552	22.2414	-5.27558	-188.935	5.75858	10.0687	-177.794	-33.9461	5.78846	-185.38	-34.434	33.546	-209.731	-35.5225	9.93153	
55	0.458333	-228.16	-15.2644	15.9267	-235.738	-13.6165	-10.0852	-237.921	-17.1863	-30.3221	-250.149	-18.9202	-47.3498	-203.134	-24.7493	-44.1769	-196.617	-19.2913	-67.7738	-190.833	-15.9359	-88.8737	-188.36	-0.448525	-40.7058	-195.182	28.0766	-30.0848	-201.401	15.8608	-2.61354	-176.165	2.15142	-27.4901	-187.403	25.1006	-9.233	-195.795	7.36661	7.15419	-161.828	5.58494	-16.3834	-177.144	21.9835	-7.8067	-187.53	4.27868	13.6962	-181.691	-32.8858	5.66627	-189.306	-35.9176	30.1426	-209.728	-38.0462	12.8946	
